<?xml version="1.0" encoding="utf-8"?>
<!-- Svg Vector Icons : http://www.onlinewebfonts.com/icon -->
<!DOCTYPE svg PUBLIC "-//W3C//DTD SVG 1.1//EN" "http://www.w3.org/Graphics/SVG/1.1/DTD/svg11.dtd">
<svg version="1.1" xmlns="http://www.w3.org/2000/svg" xmlns:xlink="http://www.w3.org/1999/xlink" x="0px" y="0px" viewBox="0 0 1000 1000" enable-background="new 0 0 1000 1000" xml:space="preserve">
<metadata> Svg Vector Icons : http://www.onlinewebfonts.com/icon </metadata>
<g><path d="M10,501.4c0-25.8,8.7-47.7,26.1-65.6S75,409,100.3,409c24.4,0,45.7,9.1,64.2,27.2c18.3,18.2,27.6,39.9,27.6,65.2c0,24.9-8.8,46-26.5,63.4c-17.7,17.4-39.7,26.2-66,26.2c-25.3,0-46.6-8.6-63.8-25.8C18.6,548,10,526.8,10,501.4z M407.2,501.4c0-25.8,8.9-47.7,26.9-65.6c17.8-17.9,39.7-26.9,65.6-26.9c24.9,0,46.3,9.2,64.1,27.6c18,18.4,26.9,40,26.9,64.9c0,24.9-8.8,46-26.5,63.4S524.7,591,498.9,591c-25.8,0-47.6-8.7-65.2-26.2C416,547.4,407.2,526.3,407.2,501.4z M807.2,501.4c0-25.8,9.1-47.7,27.2-65.6c18.2-17.9,39.4-26.9,63.8-26.9c25.3,0,46.9,9.2,64.9,27.6c17.8,18.4,26.8,40,26.8,64.9c0,24.9-8.8,46-26.5,63.4C945.8,582.3,924,591,898.2,591c-26.3,0-48-8.8-65.2-26.5C815.8,546.8,807.2,525.8,807.2,501.4z"/></g>
</svg>